<?xml version="1.0" encoding="UTF-8" standalone="no"?>
<!-- Created with Inkscape (http://www.inkscape.org/) -->

<svg
   xmlns:dc="http://purl.org/dc/elements/1.1/"
   xmlns:cc="http://creativecommons.org/ns#"
   xmlns:rdf="http://www.w3.org/1999/02/22-rdf-syntax-ns#"
   xmlns:svg="http://www.w3.org/2000/svg"
   xmlns="http://www.w3.org/2000/svg"
   xmlns:sodipodi="http://sodipodi.sourceforge.net/DTD/sodipodi-0.dtd"
   xmlns:inkscape="http://www.inkscape.org/namespaces/inkscape"
   width="210mm"
   height="297mm"
   viewBox="0 0 744.09448819 1052.3622047"
   id="svg2"
   version="1.1"
   inkscape:version="0.91 r13725"
   sodipodi:docname="box.svg">
  <sodipodi:namedview
     id="base"
     pagecolor="#ffffff"
     bordercolor="#666666"
     borderopacity="1.0"
     inkscape:pageopacity="0.0"
     inkscape:pageshadow="2"
     inkscape:zoom="1"
     inkscape:cx="351.2343"
     inkscape:cy="833.34098"
     inkscape:document-units="mm"
     inkscape:current-layer="layer1"
     showgrid="true"
     inkscape:window-width="1600"
     inkscape:window-height="837"
     inkscape:window-x="-8"
     inkscape:window-y="-8"
     inkscape:window-maximized="1">
    <inkscape:grid
       empspacing="10"
       spacingy="0.35433072"
       spacingx="0.35433071"
       units="mm"
       id="grid4136"
       type="xygrid" />
  </sodipodi:namedview>
  <defs
     id="defs4" />
  <metadata
     id="metadata7">
    <rdf:RDF>
      <cc:Work
         rdf:about="">
        <dc:format>image/svg+xml</dc:format>
        <dc:type
           rdf:resource="http://purl.org/dc/dcmitype/StillImage" />
        <dc:title></dc:title>
      </cc:Work>
    </rdf:RDF>
  </metadata>
  <g
     id="layer1"
     inkscape:groupmode="layer"
     inkscape:label="Layer 1">
    <path
       id="path4144"
       d="M 134.645669291,297.637795274 L 184.092519681,297.637795274 L 184.092519681,287.007874015 L 219.844488191,287.007874015 L 219.844488191,297.637795274 L 269.13188976,297.637795274 L 269.13188976,287.007874015 L 304.88385827,287.007874015 L 304.88385827,297.637795274 L 354.33070866,297.637795274 "
       style="stroke:#000000;stroke-width:1;fill:none"
       inkscape:label="part" />
    <path
       id="path4146"
       d="M 354.33070866,297.637795274 L 354.33070866,333.230314962 L 343.7007874,333.230314962 L 343.7007874,368.344488184 L 354.33070866,368.344488184 L 354.33070866,403.937007872 "
       style="stroke:#000000;stroke-width:1;fill:none"
       inkscape:label="part" />
    <path
       id="path4148"
       d="M 354.33070866,403.937007872 L 304.88385827,403.937007872 L 304.88385827,414.566929132 L 269.13188976,414.566929132 L 269.13188976,403.937007872 L 219.844488191,403.937007872 L 219.844488191,414.566929132 L 184.092519681,414.566929132 L 184.092519681,403.937007872 L 134.645669291,403.937007872 "
       style="stroke:#000000;stroke-width:1;fill:none"
       inkscape:label="part" />
    <path
       id="path4150"
       d="M 134.645669291,403.937007872 L 134.645669291,368.344488184 L 145.275590551,368.344488184 L 145.275590551,333.230314962 L 134.645669291,333.230314962 L 134.645669291,297.637795274 "
       style="stroke:#000000;stroke-width:1;fill:none"
       inkscape:label="part" />
    <path
       id="path4152"
       d="M 14.1732283464,145.275590551 L 49.4468503905,145.275590551 L 49.4468503905,134.645669291 L 85.1988189003,134.645669291 L 85.1988189003,145.275590551 L 120.472440944,145.275590551 "
       style="stroke:#000000;stroke-width:1;fill:none"
       inkscape:label="part" />
    <path
       id="path4154"
       d="M 120.472440944,145.275590551 L 120.472440944,191.179133854 L 131.102362204,191.179133854 L 131.102362204,226.931102364 L 120.472440944,226.931102364 L 120.472440944,272.834645668 "
       style="stroke:#000000;stroke-width:1;fill:none"
       inkscape:label="part" />
    <path
       id="path4156"
       d="M 120.472440944,272.834645668 L 85.1988189003,272.834645668 L 85.1988189003,283.464566928 L 49.4468503905,283.464566928 L 49.4468503905,272.834645668 L 14.1732283464,272.834645668 "
       style="stroke:#000000;stroke-width:1;fill:none"
       inkscape:label="part" />
    <path
       id="path4158"
       d="M 14.1732283464,272.834645668 L 14.1732283464,226.931102364 L 3.5433070866,226.931102364 L 3.5433070866,191.179133854 L 14.1732283464,191.179133854 L 14.1732283464,145.275590551 "
       style="stroke:#000000;stroke-width:1;fill:none"
       inkscape:label="part" />
    <path
       id="path4160"
       d="M 134.645669291,134.645669291 L 184.411417325,134.645669291 L 184.411417325,145.275590551 L 219.525590547,145.275590551 L 219.525590547,134.645669291 L 269.450787404,134.645669291 L 269.450787404,145.275590551 L 304.564960626,145.275590551 L 304.564960626,134.645669291 L 354.33070866,134.645669291 "
       style="stroke:#000000;stroke-width:1;fill:none"
       inkscape:label="part" />
    <path
       id="path4162"
       d="M 354.33070866,134.645669291 L 354.33070866,191.498031498 L 343.7007874,191.498031498 L 343.7007874,226.61220472 L 354.33070866,226.61220472 L 354.33070866,283.464566928 "
       style="stroke:#000000;stroke-width:1;fill:none"
       inkscape:label="part" />
    <path
       id="path4164"
       d="M 354.33070866,283.464566928 L 304.564960626,283.464566928 L 304.564960626,272.834645668 L 269.450787404,272.834645668 L 269.450787404,283.464566928 L 219.525590547,283.464566928 L 219.525590547,272.834645668 L 184.411417325,272.834645668 L 184.411417325,283.464566928 L 134.645669291,283.464566928 "
       style="stroke:#000000;stroke-width:1;fill:none"
       inkscape:label="part" />
    <path
       id="path4166"
       d="M 134.645669291,283.464566928 L 134.645669291,226.61220472 L 145.275590551,226.61220472 L 145.275590551,191.498031498 L 134.645669291,191.498031498 L 134.645669291,134.645669291 "
       style="stroke:#000000;stroke-width:1;fill:none"
       inkscape:label="part" />
    <path
       id="path4168"
       d="M 368.503937006,145.275590551 L 403.77755905,145.275590551 L 403.77755905,134.645669291 L 439.52952756,134.645669291 L 439.52952756,145.275590551 L 474.803149604,145.275590551 "
       style="stroke:#000000;stroke-width:1;fill:none"
       inkscape:label="part" />
    <path
       id="path4170"
       d="M 474.803149604,145.275590551 L 474.803149604,191.179133854 L 485.433070864,191.179133854 L 485.433070864,226.931102364 L 474.803149604,226.931102364 L 474.803149604,272.834645668 "
       style="stroke:#000000;stroke-width:1;fill:none"
       inkscape:label="part" />
    <path
       id="path4172"
       d="M 474.803149604,272.834645668 L 439.52952756,272.834645668 L 439.52952756,283.464566928 L 403.77755905,283.464566928 L 403.77755905,272.834645668 L 368.503937006,272.834645668 "
       style="stroke:#000000;stroke-width:1;fill:none"
       inkscape:label="part" />
    <path
       id="path4174"
       d="M 368.503937006,272.834645668 L 368.503937006,226.931102364 L 357.874015747,226.931102364 L 357.874015747,191.179133854 L 368.503937006,191.179133854 L 368.503937006,145.275590551 "
       style="stroke:#000000;stroke-width:1;fill:none"
       inkscape:label="part" />
    <path
       id="path4176"
       d="M 488.976377951,134.645669291 L 538.742125985,134.645669291 L 538.742125985,145.275590551 L 573.856299207,145.275590551 L 573.856299207,134.645669291 L 623.781496064,134.645669291 L 623.781496064,145.275590551 L 658.895669286,145.275590551 L 658.895669286,134.645669291 L 708.66141732,134.645669291 "
       style="stroke:#000000;stroke-width:1;fill:none"
       inkscape:label="part" />
    <path
       id="path4178"
       d="M 708.66141732,134.645669291 L 708.66141732,191.498031498 L 698.03149606,191.498031498 L 698.03149606,226.61220472 L 708.66141732,226.61220472 L 708.66141732,283.464566928 "
       style="stroke:#000000;stroke-width:1;fill:none"
       inkscape:label="part" />
    <path
       id="path4180"
       d="M 708.66141732,283.464566928 L 658.895669286,283.464566928 L 658.895669286,272.834645668 L 623.781496064,272.834645668 L 623.781496064,283.464566928 L 573.856299207,283.464566928 L 573.856299207,272.834645668 L 538.742125985,272.834645668 L 538.742125985,283.464566928 L 488.976377951,283.464566928 "
       style="stroke:#000000;stroke-width:1;fill:none"
       inkscape:label="part" />
    <path
       id="path4182"
       d="M 488.976377951,283.464566928 L 488.976377951,226.61220472 L 499.606299211,226.61220472 L 499.606299211,191.498031498 L 488.976377951,191.498031498 L 488.976377951,134.645669291 "
       style="stroke:#000000;stroke-width:1;fill:none"
       inkscape:label="part" />
    <path
       id="path4184"
       d="M 134.645669291,14.1732283464 L 184.092519681,14.1732283464 L 184.092519681,3.5433070866 L 219.844488191,3.5433070866 L 219.844488191,14.1732283464 L 269.13188976,14.1732283464 L 269.13188976,3.5433070866 L 304.88385827,3.5433070866 L 304.88385827,14.1732283464 L 354.33070866,14.1732283464 "
       style="stroke:#000000;stroke-width:1;fill:none"
       inkscape:label="part" />
    <path
       id="path4186"
       d="M 354.33070866,14.1732283464 L 354.33070866,49.7657480343 L 343.7007874,49.7657480343 L 343.7007874,84.8799212565 L 354.33070866,84.8799212565 L 354.33070866,120.472440944 "
       style="stroke:#000000;stroke-width:1;fill:none"
       inkscape:label="part" />
    <path
       id="path4188"
       d="M 354.33070866,120.472440944 L 304.88385827,120.472440944 L 304.88385827,131.102362204 L 269.13188976,131.102362204 L 269.13188976,120.472440944 L 219.844488191,120.472440944 L 219.844488191,131.102362204 L 184.092519681,131.102362204 L 184.092519681,120.472440944 L 134.645669291,120.472440944 "
       style="stroke:#000000;stroke-width:1;fill:none"
       inkscape:label="part" />
    <path
       id="path4190"
       d="M 134.645669291,120.472440944 L 134.645669291,84.8799212565 L 145.275590551,84.8799212565 L 145.275590551,49.7657480343 L 134.645669291,49.7657480343 L 134.645669291,14.1732283464 "
       style="stroke:#000000;stroke-width:1;fill:none"
       inkscape:label="part" />
    <rect
       style="fill:none;stroke:#000000;stroke-width:1.1483891;stroke-miterlimit:4;stroke-dasharray:none;stroke-dashoffset:0;stroke-opacity:1"
       id="rect4223"
       width="78.57489"
       height="84.289185"
       x="608.75244"
       y="167.26764" />
    <rect
       style="fill:none;stroke:#000000;stroke-width:1;stroke-miterlimit:4;stroke-dasharray:none;stroke-dashoffset:0;stroke-opacity:1"
       id="rect4225"
       width="56.692913"
       height="21.259842"
       x="165.13498"
       y="350.37119"
       ry="7.5028005" />
    <ellipse
       style="fill:none;stroke:#000000;stroke-width:1.31450832;stroke-miterlimit:4;stroke-dasharray:none;stroke-dashoffset:0;stroke-opacity:1"
       id="path4227"
       cx="82.767715"
       cy="253.84642"
       rx="4.6577067"
       ry="4.6577063" />
    <text
       xml:space="preserve"
       style="font-style:normal;font-weight:normal;font-size:40px;line-height:125%;font-family:sans-serif;letter-spacing:0px;word-spacing:0px;fill:#ff0000;fill-opacity:1;stroke:none;stroke-width:1px;stroke-linecap:butt;stroke-linejoin:miter;stroke-opacity:1;"
       x="402.06299"
       y="343.23618"
       id="text4229"
       sodipodi:linespacing="125%"><tspan
         sodipodi:role="line"
         id="tspan4231"
         x="402.06299"
         y="343.23618">56mm</tspan><tspan
         sodipodi:role="line"
         x="402.06299"
         y="393.23621"
         id="tspan4233">36mm</tspan><tspan
         sodipodi:role="line"
         x="402.06299"
         y="443.23621"
         id="tspan4235">30mm</tspan></text>
  </g>
  <g
     id="g4192"
     inkscape:groupmode="layer"
     inkscape:label="newlayer" />
</svg>
